<svg xmlns="http://www.w3.org/2000/svg" fill="none" viewBox="0 0 24 24" id="Socket.Io--Streamline-Svg-Logos" height="24" width="24">
  <desc>
    Socket.io Streamline Icon: https://streamlinehq.com
  </desc>
  <path fill="#010101" d="M9.024175 0.632665c3.0406 -0.77978675 6.401 -0.3253775 9.08255 1.3295675C21.48395 3.981825 23.688675 7.802225 23.744775 11.734825c0.123425 3.971875 -1.946675 7.910075 -5.2734 10.069925 -3.702575 2.490825 -8.8245 2.5862 -12.605625 0.218775C2.01169 19.72345 -0.23791225 15.083975 0.339915 10.62965 0.805545 5.922875 4.440825 1.7714925 9.024175 0.632665Z" stroke-width="0.25"></path>
  <path fill="#ffffff" d="M8.558675 2.55685c5.744625 -2.3001025 12.790775 1.94665 13.385425 8.106425 0.92565 5.54265 -3.67455 11.175075 -9.290125 11.337775C7.31325 22.534 2.152075 18.00675 2.000605 12.6436 1.602295 8.301475 4.4634 3.993 8.558675 2.55685Z" stroke-width="0.25"></path>
  <path fill="#010101" d="M9.136475 11.403875c2.574975 -2.10375 5.093875 -4.280425 7.72495 -6.32245 -1.38005 2.120575 -2.799375 4.2131 -4.17945 6.333675 -1.1837 0.0056 -2.3674 0.0056 -3.5455 -0.011225Z" stroke-width="0.25"></path>
  <path fill="#010101" d="M11.312975 12.576425c1.189325 0 2.373025 0 3.55675 0.016825 -2.591825 2.092525 -5.099475 4.286025 -7.736175 6.32245 1.38005 -2.120575 2.799375 -4.2187 4.179425 -6.339275Z" stroke-width="0.25"></path>
</svg>